<?xml version="1.0" encoding="UTF-8"?>
<svg id="Layer_2" data-name="Layer 2" xmlns="http://www.w3.org/2000/svg" viewBox="0 0 372.03 372.39">
  <defs>
    <style>
      .cls-1 {
        fill: #701462;
      }
    </style>
  </defs>
  <g id="Layer_1-2" data-name="Layer 1">
    <g>
      <path class="cls-1" d="m81.15,34.95c7.34-4.07,14.28-8.48,21.41-12.58,12.11-6.96,25.5-10.7,38.68-14.83,4.74-1.49,9.12-5.28,14.39-4.14,8.49,1.83,15.81-3.27,23.91-3.4,3.99,0,7.98,0,11.97,0,.56.29,1.13.84,1.69.83,8.16-.1,16.17,1.24,24.23,2.25,9.67,1.22,18.56,4.86,27.51,8.3,4.08,1.57,6.92,6.38,12.31,4.54.67-.23.4.53.58.82,3.02,4.73,9.77,2.6,13.04,7,.08.1.63-.07.91-.21,3.56-1.79,5.34,1.27,7.75,2.75,3.1,1.91,4.26,5.49,7.13,7.73,2.23,1.74,5.74.3,6.12,1.34,1.6,4.38,5.08,5.04,8.69,6.74,4.6,2.16,8.69,5.79,12.42,9.39,28.08,27.14,46.42,59.7,54.27,98.1,1.83,8.93,2.13,18.04,3.88,26.95v19.95c-1.15,1.43-.81,3.18-.92,4.78-.97,14.28-4.15,28.07-8.35,41.72-8,25.97-21.62,48.67-39.75,68.69-57.46,63.48-152.93,79.46-227.23,37.1C39.61,316.74,7.78,267.92,1,203.39c-3.56-33.95,2.41-66.49,17.27-97.17,7.73-15.96,16.98-31.02,29.8-43.72,7.59-7.52,14.76-15.38,24.4-21.38m250.44,136.29l.11-.12-1.87-.27v.08c-.13-2.15,2.22-3.24,2.26-5.31v.15c4.33-4.56,7.98-9.96,14.97-10.97,1.43-.21,2.86-1.19,1.92-3.19.42.24.83.67,1.28.7,4.59.36,6.43-5.22,10.99-5.15.56,0-.4-.97-.51-1.55-.12-.66-.59-1.53-1.22-.93-1.88,1.82-4.41.54-6.11,1.35-1.87.88-5.87.39-5.04,4.56-.73-1.19-2.13-1.6-2.93-.81-2.81,2.77-7.24,2.56-9.85,6.06-1.52,2.04-4.36,4.32-7.71,2.15l.04-.04c3.23-1.36,5.92-3.42,8.39-5.93,3.85-3.91,7.7-7.58,13.78-8.41,3.01-.41,6.38-2.56,7.59-6.34-2.1-.65-2.89,2.38-4.83.94.25-1.13,1.47-1.21,2.05-1.9.76-.89,2.66-1.68,1.65-3.01-1.21-1.6-2.27.32-3.26.92-5.61,3.44-11.37,6.69-16.04,11.47-.27.28-.84.28-1.13.37-1.09-1.35,2.14-1.24.63-2.75-2.11.12-3.5,1.64-5.08,2.74-1.04.73-2.01,2.22-3.37,1.02-1.34-1.19.38-2.35.54-3.56,5.56-.9,11.13-1.81,13.23-8.26,5.26-.84,8.85-4.18,12.07-8.06.46-.55,2.18-1.22.51-2.09-2.09-1.09-3.35-3.57-6.05-3.59.33-.36.77-.68.98-1.1.53-1.08-.48-1.12-.85-.79-2.81,2.61-6.7,2.46-9.9,4.01,3.41-4.24,10.63-5.04,10.93-12.09,0-.14-.06-.27-.11-.52-7.61,2.74-13.88,8.12-21.82,11.75,1.15-3.99,5.35-4.06,5.83-7.36,1.85-.14,2.33-1.68,3.04-2.98,1.09.03,1.73-.57,2.13-1.51.29-.15.5-.26.64-.32,5.63-2.28,5.48-2.83,1.74-7.27-2.08-2.47-3.38-2.34-5.68-.97-1.16.69-2.52,1.81-4.36.45,1.8-1.46,3.38-3.11,5.29-4.18,1.9-1.06,2.02-2.4.74-3.48-1.13-.95-1.64-3.82-4.22-2.05-1.21.83-2.43,1.84-4.1,1.3l.05.23c-.01-2.06,2.36-2.55,2.77-4.52,1.05-4.94-2.35-8.16-4.76-11.31-1.77-2.32-3.77,1.5-5.87,2.08-.78.22-1.47.79-2.6,0,.82-2.79,4.13-2.96,5.52-4.92,1.36-1.92-1.31-2.62-2.06-3.87-1.48-2.46-3.57-4.19-6.36-1.22-.42-4.95-2.02-8.6-6.72-10.09-1.36-.43-2.85-1.2-2.84-2.48.04-4.14-3.93-5.42-5.96-7.38-6.46-6.22-14-11.32-21.13-16.84-1.67-1.29-3.42-2.1-5.41-.59-.96-3.86-5.07-5.33-8.96-2.97,2.86.98,3.66,5.56,7.78,3.85-4.38,3.23,2.18,5.85.5,8.93,2.82,1.36,5.61,1.4,8.44-.36-.55.87-1.11,1.6-1.83,1.8-4.21,1.21-4.5,4-3.38,7.59.68,2.17,2.26,5.27,1.39,6.5-4.33,6.08-4.16,14.03-9.84,19.77-6.89,6.96-11.68,15.82-19.76,21.95-5.93,4.5-13.4,6.6-18.54,12.13-5.41,5.81-12.92,8.73-19.73,10.95-5.39,1.76-7.96,5.42-11.19,8.47-4.58,4.32-9.75,6.85-15.52,7.96-5.95,1.15-11.5,3.38-17.11,5.35-4.48,1.58-9.22,5.28-13.34,4.35-4.29-.97-8.2.2-11.05,1.28-5.44,2.04-10.93,2.43-16.41,3.47-.43.08-1.03.29-1.31.1-3.15-2.18-3.25-2.39-5.26-1.14-1.34.83-2.21.98-3.5.02-1.28-.96-2.56-.83-4.02.24-2.45,1.8-5.46,2.26-8.46,2.57.32-1.94,2.61-1.82,3.51-3.39-1.13,0-2.25.25-3.19-.05-2.63-.84-4.37.73-6.02,2.16-.78.67-.04,1.94.73,2.54,2.27,1.77,3.3-1.32,5.12-1.42-1.86,1.58-1.87,3.74-.49,5.18,1.08,1.14,2.11,3.92,4.71,2.15,1.67-1.14,2.25.84,3.38,1.04,3.14.55,2.83,6.46,7.3,4.7,2.64-1.04,4.28.84,6.2,1.86,2.41,1.29,4.79,2.64,7.07,4.13,4.2,2.75,9.7,3.69,14.79,4.8,3.57.78,6.45,3.92,10.46,2.92,2.08,6.13,6.07,2.65,9.65,1.53-1.23,3.56-1.12,3.05,1.78,3.66,4.64.98,9.72-1.17,14.08,2.38,1.46,1.19,5.59-.75,5.68-.59,2.81,5.13,4.72-.23,6.95-.51.74-.09,1.3-1.1,2.23-.48-.3.6-.89,1.22-.81,1.75.15,1.04.94.45,1.47.24,1.52-.62,3.01-2.41,4.63-.12-1.28.94-2.51,1.85-3.82,2.81,3.54.82,6.11-2.27,9.47-1.38,4.82,1.27,8.78-.43,11.17-4.47.26-.43,1.62-.77,1.68-.67,1.6,2.61,3.12-.22,4.68-.08,1.57.13,2.82-2.11,4.9-.42,2.29,1.87-2.03,2.97-.12,4.58.41-.03,1.12.13,1.33-.12,5.9-7.09,14.03-5.54,21.48-4.9,5.8.49,11.08,1.87,15.78-3.21.95-1.03,3.62-2.25,6.22-1.78-1.99,1.64-3.3,3.67-5.55,4.5-1.29.48-1.98,1.45-1.66,2.62.38,1.41,1.94.81,2.95,1.19,2.58.98,4.25-2.55,6.81-1.21,0,0,.22.11.22.11.58-.47,1.16-.94,1.73-1.41l-.14.16c.29-.78.76-1.26,1.67-1l.06.1c1.35-4.08,3.5-3.1,5.83-.92-1.25,1.03-2.48,2.09-3.76,3.09-1.02.8-.45,1.76-.4,2.7.05.87.41,1.1,1.21.91,4.39-1.08,9.38-.53,12.48-5.02.93-1.36,2.25-2.89,4.35-1.56.2.58.39,1.17.59,1.75-1.26,3.19-5.7,3.11-7.08,6.46,8.36,1.9,8.72,1.74,14.88-3.66,1.19-1.04,2.85-1.8,4.41-2.13,7.25-1.53,12.94-6.06,19.09-9.69l.2.19c2.36-.5,4.64-1.12,5.68-3.66l.04.16c.36-.15.72-.29,1.09-.44,0,0,.07,0,.07,0,.81-.35,1.63-.7,2.44-1.05.36-.37.73-.75,1.09-1.12.92.14,1.85.28,2.77.41,0,0-.15.02-.15.02.79-.42,1.57-.84,2.36-1.26.36-.87.72-1.75,1.09-2.62.34-.29.69-.58,1.03-.86-.88-.54-1.76-1.07-2.64-1.61l.06.08c.78-3.25,3.96-3.59,6.22-4.91,3.3-1.92,5.24-4.45,6.05-9.71-9.65,7.56-19.99,11.61-27.94,19.3l-.02.16Zm-151.76,140.95h-.11c1.88-.86,3.64-1.86,4.51-3.89v-.12s-.17.08-.17.08c6.97-2.15,12.63-6.75,18.94-10.13-.87.69-2.46,1.61-1.64,2.57,1.83,2.13,3.43-1.76,5.51-.63-.44,1.35-.87,2.72-1.31,4.09l.21-.12c-1.26-1.26-2.55-1.02-4.01-.29-4.92,2.47-10.08,4.54-14.76,7.39-2.59,1.57-6.3,2.45-6.8,6.42-.38,1.02-.77,2.04-1.15,3.05-.53,2.02-1.93,2.97-3.92,3.27-5.7.87-10.15,4.31-15.34,7.21,1.86,1.12,4.1-1.22,4.81.67.93,2.48-2.57,3.41-3.28,6.54,4.02-2.37,7.18-4.76,10.73-6.19,4.24-1.71,8.05-5.68,13.32-3.47.29.58.57,1.16.86,1.74-.93.11-1.86.22-2.79.33l.08-.11-2.44,1.88v-.16c.52.8-.57,2.39,1.25,2.55-.12.28-.18.57-.15.9v.13s-.16-.22-.16-.22c1.82.16,2.84-.87,3.55-2.37,0,0,0,.15,0,.15.75-.85,1.51-1.7,2.26-2.55,1.1-1.18,2.16-2.41,3.78-2.93.61-.21,1.23-.42,1.84-.63,2.66,1.85,10.51.33,11.57-2.37.34-.88-.74-1.3-1.59-1.47,4.12,1.12,7.6-1.72,11.51-1.87-7.37,6.1-16.61,9.05-24.82,14.24,2.33,1.68,4.37,1.3,5.88,0,5.25-4.5,11.99-6.14,17.78-9.59,3.37-2.01,6.27-4.93,10.42-5.43-.25,1.96-1.89,2.63-3.32,3.39-10.23,5.44-19.71,12.08-29.4,18.38-1.38.9-3.11,1.52-3.93,3.94,2.92-.55,4.63-2.12,6.62-3.18,8.22-4.42,14.73-11.86,24.36-13.82,1.04-.21,1.82-1.49,2.87-1.86,6.69-2.39,10.88-8.27,16.73-11.9,4.33-2.68,10.05-2.25,13.44-6.57.3.24.61.47.91.71.26,1.87-.51,4.42-1.75,4.49-5.29.3-6.45,5.78-10.79,7.25,1.16,1.04,2.02.59,2.69.28,5.34-2.47,10.37-5.54,15.81-7.92,3.28-1.44,7.67-4.36,7.57-9.59,1.02.5,2.04,1,3.06,1.5-.37.87-.75,1.75-1.12,2.62l.04-.16c0,.73,0,1.46,0,2.2.33.24.66.48.98.72-1.59,1.11-3.08,2.42-4.79,3.29-3.86,1.97-7.77,3.84-10.83,7.03-.06,5.04-4.61,6.69-7.33,9.72-.67-2.49-1.85-1.62-3.19-.54-4.58,3.7-9.45,6.91-14.78,9.53-3.57,1.75-7.34,3.52-11.13,7.23,5.72-1.21,9.47-3.6,13.42-5.44,4.16-1.94,7.99-4.59,11.9-7.04,1.45-.91,3.55-1.25,3.75-3.53,5.66.15,10.21-3.41,13.95-6.37,4.94-3.91,9.8-7.69,15.38-10.57.5,1.56,1.64.96,2.34.45,4.94-3.59,10.63-6.05,15.46-9.65,6.14-4.59,14.13-6.03,19.4-11.97.61-.69,2.2-.48,3.31-.78,4.55-1.26,7.47-5.26,11.67-7.17.4-.18,1.76-1.99.6-3.65-3.22,1.51-6.46,2.96-9.63,4.56-1.99,1.01-3.46,1.14-4.08-1.43l-.67-2.09c1-1.05,2.13-2,2.96-3.17.77-1.07.32-2.32-.65-3.02-1.5-1.07-1.76.78-2.57,1.34-6.37-2.57-8.89,2.41-12.03,6.15v-.04c-4.33-.21-5.84,3.35-8.05,5.98-.62-2.05-2.26-2.17-4-2.13-1.95,1.1-3.89,2.2-5.84,3.3-.31.05-.63.13-.94.13-.11,0-.33-.23-.32-.33.29-2.01,3.03-1.6,3.43-3.14,1.41-5.5,7.21-5.49,10.73-8.18,2.05-1.57,4.78-2.54,6.77-4.81,2.14-2.43,3.23-6.92,6.47-7.02,5.29-.16,7.8-4.25,11.7-6.27,1.9-.99,3.8-2.18,5.11-4.24-2.44-.77-4.77-.24-6.1.77-6.36,4.82-14.11,6.27-21.04,9.57-3.81,1.82-8.83,3.1-10.47,8.23-.21.65-1.7,1.36-2.52,1.27-2.92-.32-4.7,1.45-6.33,3.26-6.16,6.85-14.9,8.79-22.86,12.25l.06.25c1.79-5.8,5.74-9.48,11.31-11.58-2.14,1.14-3.05,3.09-4.03,5.69,2.78-.39,5.33-1.46,5.99-3.01,1.8-4.28,5.82-4.83,9.07-6.82,2.76-1.68,6.66-2.11,8.1-5.26,1.88-4.11,5.32-5.44,9.07-6.81,1.94-.71,3.32-2.09,2.3-4.5,1.71.05,1.89-1.4,1.82-2.39-.15-2.02-2.26-.22-3.05-1.27,2.97-2.93,5.56-6.5,9.02-8.63,3.83-2.36,0-7.02,3.96-8.81-2.84.05-4.95,1.19-7.19,2.19-4.78,2.13-8.35,6.5-13.78,7.37,1.11-1.77,3.23-2.22,4.63-3.55,1.09-1.04,3.34-1.96,1.41-4.13,3.48-3.04,3.52-8.01,6.75-11.12-1.88-1.48-2.9,1.33-4.68.57,1.1-3.08,6.16-5.27,1.25-9.09-1.14,3-4.21,3.06-6.43,4.46-12.1,7.64-24.01,15.57-36.01,23.38-3.73,2.43-7.41,4.97-11.79,6.16,7.37-7.44,16.44-12.65,25.44-17.53,11.23-6.09,19.79-15.56,30.67-21.96-2.39-2.31-4.3-.74-6.21.62-1.02.72-2.42,1.4-3.07.26-.68-1.2-.68-2.91-.57-4.36.05-.71,1.79-.9,1.33-2.13-1.24-.88-1.67.09-2.5.68-2.74,1.92-6.32,3.94-8.89,1.22-1.95-2.06-2.46-.83-3.73-.1-3.22,1.86-6.04,5-10.39,3.22l.08-.22.03-.25s.25.03.25.03c.53-.21,1.06-.41,1.59-.62v-.33s.31-.07.31-.07c.43-.03.85-.06,1.28-.09.1-.89.21-1.78.31-2.66-.98.44-1.97.88-2.95,1.33.76-.78.75-1.68-.42-1.57-1.93.18-3.83.44-5.74,1.28-3.3,1.47-5.8,4.53-9.85,4.93,2.65-1.37,2.9-3.83,1.72-5.54-1.68-2.42-3.37.34-4.96.97-1.81.72-3.47,1.84-5.77,3.1,1.42-3.3,4.64-3.21,6.55-6.6-6.12,3.29-11.27,6.05-16.43,8.82.96-1.76,2.34-2.66,3.78-3.43,1.45-.79,2.37-1.61,1.42-3.45-.35-.67-.58-1.15-1.34-1.05-2.44.34-.67,2.45-1.27,3.84-2.69-2.77-5.44-3.13-8.78-1.94-2.87,1.02-5.15,3.57-8.39,3.53-.98-2.09,2.72-2.28,1.13-4.59-1.54.17-5.08,4.27-4.16-2.12-1.97,2.7-4.72,3.13-7.13,4.31-4.44,2.18-8.47-1.27-12.73.17-4.41,1.49-9.18,1.54-13.69,3.04-2.44.81-5.39.08-8.11.04.79-5.85-3.21-1-4.61-2.05-2.98-2.25-5.89-1.24-8.84.23-.65.33-.47-.99-.67-.97-4.4.47-8.03-2.29-12.23-2.88-3.17-.45-5.72-.33-8.44,1.21-2.42,1.37-.82-.52-1.05-1.27-1.78-5.61-2.31-5.7-7.13-1.93-1.63,1.27-3.21,2.69-6.02,3.1.81-.86,1.11-1.24,1.47-1.55,1.19-1.04,4.24-.87,3.27-3.13-.62-1.44-1.78-4.79-5.08-2.55-1.09.74-2.01-.53-3.03-.92-3.45-1.34-6.29-3.94-10.5-3.89-2.87.03-6.41-1.18-8.49-3.09-3.49-3.23-8.08-3.87-11.81-6.35-1.4-.94-3.48-1.06-4.94.89,2.49,1.45,4.89,2.84,7.3,4.24-1.43.49-2.54.31-3.55-.11-6.61-2.77-11.78-7.78-17.54-11.81-4.09-2.86-8.49-5.53-11.89-9.43-3.25-3.73-3.18-6.87.6-9.81,1.04-.81,2.96-.85,2.87-3.11-2.18.94-4.24-.29-6.34.1,2.79-1.34,2.84-4.94,5.53-6.56-3.07,0-6.63-1.94-8.65.28-1.87,2.06-1.11,5.46.92,7.94-3.71,4.19-1.67,8.99-1.23,13.5.93,9.55,1.79,19.14,3.51,28.57,1.22,6.7,3.68,13.19,5.9,19.67.47,1.36,1.48,4.2,4.21,1.54,1-.98,2.73-1.21,4.85-2.08-1.93,2.48-3.98,3.29-5.83,4.33-2.65,1.49-.92,3.48-.69,5.25.19,1.4.86,2.58,2.68,1.94,1.02-.36,2.22-1.4,2.92.24.61,1.42-.8,2.01-1.66,2.69-.98.77-1.1,1.45-.32,2.47.74.97,1.34,1.96,2.74,1.04,2.98-1.95,6.77-2.65,9-5.79,1.84-2.6,4.28-3.65,8.36-2.62-6.27,2.33-10.09,7.06-15.49,9.29-1.51.63-3.08,1.51-1.74,3.13.96,1.16,2.42,2.88,4.64,1.28,1.46-1.05,3.18-1.8,4.87-2.43.65-.24,1.86-.06,2.28.41.61.68-.09,1.49-.75,2.02-.9.73-1.71,1.68-2.74,2.07-1.55.59-3.74.72-2.74,3.04.91,2.09-.03,5.19,2.29,6.21,1.45.64,2.67-1.5,3.64-2.86.6-.84,1.57-1.69,2.44-.78,1.22,1.27-.07,1.89-1.07,2.58-1.08.74-2.07,1.62-3,2.54-2.76,2.73.43,4.8,1,7.08.71,2.84,2.6-.03,3.93.35-.26,1.3-2.98,1.69-1.51,3.52,1.13,1.4,2.44.18,3.52-.42,2.56-1.42,5.06-2.94,7.59-4.42.88-.59,1.77-1.17,2.65-1.76,1.33-.3,2.67-.6,4.28-.96-.45,1.87-1.65,2.46-2.75,3.16-3.07,1.96-6.06,4.07-9.23,5.87-1.81,1.02-1.91,2.54-2.04,4.19-.06.83-.02,1.6,1.02,1.95,4.17,1.43,7.5.93,11.04-2.37,6.08-5.67,12.3-11.43,20.64-13.85l-.11-.12c-1.18,3.39-3.64,5.67-6.75,7.13-7.06,3.33-12.15,9.62-19.34,12.76-.8.35-1.81,1.09-1.06,2.31.57.92,1.34,1.38,2.49.83.73-.35,1.55-.53,2.32-.79.59,4.57,3.33,1.85,4.76,1.08,5.14-2.78,10.08-5.93,15.1-8.94l-.24-.05c1.56,1.77,1.31,3.89-.72,4.37-5.91,1.38-9.54,6.14-14.38,9.05-.86.52-3.58.47-1.91,2.84,1.13,1.6,2.44,1.64,4.25.66,1.74-.94,3.54-2.6,5.88-1.37l-.07-.15c.45,1.38-3.81,1.62-.87,3.6-1.49.65-3.05,1.56-3.18,3.17-.09,1.07,1.6.52,2.43.85h.1c.87-.37,1.73-.74,2.6-1.11.28-.25.56-.49.85-.74-.23-.13-.45-.26-.68-.39,2.12-.62,4.31-1.06,6.34-1.89,3.04-1.24,6.75-1.47,8.37-5.07,2.41.06,3.62-3.17,6.32-2.3.16.13.34.2.54.21.9,3.91-2.89,3.87-4.66,4.73-5.67,2.75-10.5,6.74-15.95,9.77-1.16.65-1.64,1.64-1.27,2.89.08.26,1.11.56,1.19.46,2.82-3.83,8.04-2.59,11.26-5.28,2.96-2.46,6.25-3.33,9.89-3.53.47-.06.93-.11,1.4-.17-.04,3.33-4.74,8.6-8.54,9.58-5,1.29-7.42,4.86-6.34,9.48,2.48-.9,4.96-1.79,7.43-2.68-.58.97-1.14,1.95-1.74,2.9-.39.62-1.45,1.1-.63,1.97.73.78,1.99,1.07,2.64.23,2.37-3.02,6.95-3.77,8.11-7.97.47.47.93.94,1.4,1.4l-.09-.13c.35.71.7,1.42,1.05,2.13-.91,1.84-4.39,3.18-2.88,5.17,1.69,2.23,4.09-.37,6.09-1.25.6-.27,1.17-.63,1.75-.94,4.34-2.33,8.69-4.66,13.03-6.99l.02.05c-1.56,5.57-6.78,6.74-11.03,8.87-3.71,1.85-6.14,4.74-8.59,7.82,4.5-.2,6.54-5.67,11.41-4.66-.03-.08-.24.88-.13-.02.72-.26,1.44-.53,2.16-.79-.05.09-.11.17-.16.26-.04-.03-.08-.06-.12-.09.56-.29,1.12-.58,1.68-.87l-.18.18c1.62-2.25,3.16-4.58,6.09-5.33h.23c.29.11.5.31.64.59.9.49,1.8.97,2.71,1.46l.02-.06c1.07.77,2.15,2.13,3.17-.05,2.69-.77,5.37-1.55,8.06-2.32.67-.34,1.33-.69,2-1.03-.04-.54-.07-1.09-.11-1.63.84.02,1.66,0,2.01-.99.55.09,1.1.18,1.65.26Zm142.52-90.83c-1.83,1.27-1.22,3.58-2.23,5.23-1.86,3.04,1.64.63,1.77,1.69l-.11-.1c-1.43,3.07-5.65,3.01-6.94,6.03-.68,1.59-3.26,3.05-1.16,5.22,2.02,2.08,4.34,1.35,6.25-.03,6.32-4.55,13.6-7.45,20-11.97,3.71-2.62,7.27-6.16,12.43-6.68,2.09-.21,5.62-6.8,5.65-9.49-4.78,5.56-11.85,6.81-17.48,10.55-3.25,2.16-1.14-1.51-2.08-2.2-3.03,2.87-6.07,5.75-9.11,8.63.88-2.25,1.97-4,1.98-6.23-.02-.2-.01-.41.03-.62,1.58-1.28,3.16-2.56,4.74-3.85,1.43-1.67,2.85-3.34,4.28-5.01,6.7-5.09,13.4-10.17,20.83-15.81h-4.49l.12.13c-.12-1.93,1.28-2.86,2.52-3.93.47-.4,1.04-1.14,0-1.47-.51-.16-1.2.26-1.81.42-.01-.12-.03-.24-.07-.56,3.67-.49,3.19-3.61,3.97-6.04-1.88-.82-3.07,1.78-4.79.54l.08.09c2.77-2.93,4.6-6.41,6.75-11.11-3.19,1.34-5.38,3.71-7.96,1.54l.13.14c-1.02-3.19,1.99-3.44,3.53-4.5,2.33-1.6,1.08-3.71,1.28-5.61.08-.82-.25-1.81-1.37-1.61-1.7.31-2.14,1.82-2.81,3.17-.42.85-1.15,1.75-1.97,2.16-6.59,3.34-12.52,7.82-19.8,10.02-4.3,1.3-8.89,3.67-11.79,6.94-2.51,2.83-4.89,4.36-8.33,5.36-3.67,1.07-6.66,3.57-9.29,6.38-1.14,1.21-1.45,3-.74,4.16.94,1.55,2.69.62,4.06.08,1.2-.48,1.99-2.27,3.5-1.37.43,1.87-1.78,1.5-1.86,3.2,4.06-1.48,6.42-4.68,8.93-7.64.57-.67.5-2.36,1.84-1.65,2.77,1.46,3.86-.7,5.37-2.1,2.88-2.67,7.06-2.79,10.11-5.13l-.17-.12c1.91,1.83.14,2.53-1.06,3.31-4.86,3.14-9.62,6.39-14.72,9.2-4.42,2.44-9.14,4.84-12.79,8.76,2.31,1.66,5.94.53,5.9.74-.75,4.9,2.27,1.83,3.73,1.87-1.58,2.31-5.82,2.71-4.89,7.13,2.19-.43,4.3-1.35,6.54-.93l-.05-.13c-1.55,3.04-5.54,3.01-7.77,6.07,4.12-1.05,7.72-1.97,11.32-2.89ZM97.87,47.93c-.17.6-.16,1.38-.54,1.78-4.69,4.85-9.75,9.38-14.09,14.52-4.93,5.83-12.92,9.08-14.8,17.51-1.52,6.81-6.66,11.75-9.45,18.09-6.81,15.45-10.48,31.43-12.69,47.94-.09.66-.31,1.35.56,1.62.83.26,1.58.09,2.31-.45,1.55-1.15,2.64-3.08,4.95-2.96.35-.12.69-.24,1.04-.36,4.22-1.46,6.45-6.57,11.6-6.31-.55,3.92-5.75,3.8-6.65,7.83,3.46-3.1,7.11-3.46,11.01-1.61-1.86,3.46-2.88,6.42,3,6.57.41.01,2.62.68,3.58,2.18,1.66,2.59,4.23,1.57,5.77-.08,2.4-2.58-1.27-2.49-2.07-3.7-.78-1.18-2.17-1.06-3.79-1.52,2.14-1.32,4.01-2.34,5.72-3.58.69-.5,1.33-2.34.5-2.26-2.58.23-4.58-2.92-7.26-1.06,1.1-1.83,2.16-3.69-1.44-3.61-2.88.07-5.79-.04-8.57.99,1.37-2.76,5.69-3.28,5.52-7.22,4.45-.21,7.4-4.15,11.71-4.71,1.62-.21,2.95-.27,3.94,1.57.7,1.3,2.3,2.04,3.88,1.21,3.2-1.67,6.14-3.81,10.19-2.47,5.36,1.76,10.01-2.04,15.14-2.68,3.3-.41,3.14,3.84,4.57,2.4,2.44-2.44,5.47-1.5,8.09-2.53,8.94-3.53,18.02-6.74,27.04-10.07-1.18,2.97-2.18,6.01-5.13,7.87-.67.42-.81,1.49-.25,2.23.71.95,1.45.2,2.13-.17,4.42-2.39,8.83-4.79,13.27-7.21-.95-1.58-2.24,1-3.01-.63.59-1.71,3.38-1.32,3.59-4.04-3.92-.49-7.34.83-10.71,2.4,5.35-4.46,12.55-5.44,18.05-9.62-.97,1.67-2.01,3.33-1.95,6.16,4.47-2.36,8.59-4.47,12.63-6.7,1.35-.75,1.45-2.4,1.06-3.55-.6-1.78-2.07-.8-3.3-.51-1.11.25-2.27.29-3.41.42.99-.86,1.85-1.97,2.99-2.53,11.03-5.48,20.48-13.16,28.76-22.06,3.54-3.81,9.74-5.44,10.26-12.16.26-3.42-3.65-8.7-7.23-8.31-4.43.49-7.3-2.75-6.65-7.4.13-.92.3-1.88-.31-2.87-4.18-6.79-7.25-8-14.93-6.48-3.16.62-3.52,2.71-2.43,4.54,1.31,2.21.58,4.1.48,6.17-.12,2.59-1.03,4.05-4.02,4.03-2.85-.01-5.07-1.62-4.95-3.76.16-2.73-1.06-4.86-1.5-7.27-1.23-6.76-5.43-9.19-11.81-6.76-2.21.84-4.5,1.5-6-.2-4.23-4.8-10.47-4.94-15.63-7.47-2.2-1.08-3.88-1.13-6.03-.31-5.83,2.23-11.77,4.15-17.37,6.95-3.84,1.92-7.75,3.72-11.68,5.45-1.16.51-2.98,1.9-3.01-1.09m176.28,282.64c.24.37.48.75.72,1.12,5.7-2.53,11-5.69,15.1-10.72-5.27,3.2-10.55,6.4-15.82,9.6Zm-64.85,29.92c5.64-4.23,12.84-5.88,17.82-11.02-6.45,2.89-12.64,6.21-17.82,11.02ZM51.41,154.15c-1.53-.92-3.59.34-4.4-1.75-.33-.85-1.03-.74-1.46-.1-1.42,2.12-1.49,4.94.03,6.36,2.48,2.33,1.71-1.4,2.69-2.11,1.03-.74,2.02-1.55,3.14-2.41Zm259.65,124.14c.29.4.58.81.87,1.21,3.32-2.07,6.64-4.14,10.39-6.49-6.68-2.37-7.66,3.6-11.25,5.27Zm-38.45,47.38c-.28-.36-.56-.73-.84-1.09-2.98,1.95-5.96,3.9-8.94,5.86,3.81-.77,7.53-1.63,9.78-4.77Zm-35.22,20.04c3.54-1.58,7.41-2.66,9.44-6.24-3.14,2.15-6.76,3.55-9.44,6.24Zm99.25-121.65c3.3-2.12,6.59-4.25,9.89-6.37-4.23.67-7.41,2.99-9.89,6.37Zm-16.17,26.5c3.59-1.53,6.83-3.52,9.49-6.32-3.7,1.31-6.81,3.53-9.49,6.32Z"/>
      <path class="cls-1" d="m267,300.77c2.98-.19,5.32-1.92,7.84-3.29,1.97-1.11,3.92-2.21,5.86-3.31,1.67,3.37-4.63,3.27-2.83,7.04,2.26-1.56,4.4-3.04,6.54-4.52,2.46-.15,4.92-.29,7.39-.44,1.87-.41,3.68-.51,5.24.89l.05.1c1.94,2.47-.47,3.99-1.72,4.75-7.69,4.73-14.92,11.09-25.08,8.63-.46.16-.93.33-1.41.49-1.54.33-3.09.65-4.63.98l.11.12c.28-1.69.56-3.38.84-5.06.35-.36.71-.73,1.06-1.09.43-.16,1.25-.13.44-.9.99-1.2,2.96-1.88,2.46-3.87-.24-.95-1.36-.65-2.17-.53Zm21.56,1.73c.1-.08.21-.16.31-.24-.06.09-.13.19-.22.25l-.3-.18.22.16Zm-3.05,1.21l-.26-.18-.04.28.3-.1Z"/>
      <path class="cls-1" d="m310.19,224.47c3.3-2.04,6.05-5.05,10.07-5.82,1.35-.26,2.3-1.4,2.41-2.21.45-3.42,3.08-4.34,5.59-5.34,5.02-1.99,9.67-4.64,14.26-7.44,1.68-1.02,3.63-1.6,5.65-.64,0,0-.12-.13-.12-.13-.33,1.84-1.75,2.59-3.21,3.44-9.06,5.31-18.07,10.7-27.1,16.07-2.31,1.38-2.3,1.39-.07,3.04-1.45.8-2.9,1.59-4.35,2.39,1.21-3.22-.45-3.83-3.17-3.48l.05.13Z"/>
      <path class="cls-1" d="m323.1,209.02c2.71-4.94,6.18-8.99,11.86-10.71,1.84-.56,3.5-1.69,5.24-2.56,0,0-.15-.1-.15-.1-.14-2,1.19-3.41,2.11-4.95.95-1.6,2.8-1.85,4.4-1.78,1.99.08,1.11,2.02,1.5,3.14,0,0-.08-.09-.08-.09.2.88,0,1.73-.74,2.18-8.12,4.84-15.16,11.44-24.15,14.86Z"/>
      <path class="cls-1" d="m151.12,307.97c.97.33,1.94.67,2.89,1.01.24-.15.49-.29.75-.43,1.94,2.3-.42,2.65-1.61,3.33-4.9,2.77-9.75,5.63-14.82,8.05-2.04.97-2.2,2.04-1.7,3.78-.58.32-1.15.68-1.75.94-2,.88-4.39,3.48-6.09,1.25-1.51-1.99,1.97-3.33,2.88-5.17.37-.54.73-1.09,1.1-1.63,0,0-.19.14-.19.14.39-.39.78-.78,1.17-1.18,0,0-.15.17-.15.17.88-.07,1.66-.34,2.18-1.12l-.2.15c.56-.27.84-.69.68-1.33,4.46-.99,8.07-4.28,12.75-4.68,0,0,.06-.02.06-.02.93-.49,1.86-.98,2.79-1.46,0,0,0,.1,0,.1-.24-.63-.49-1.26-.73-1.9Z"/>
      <path class="cls-1" d="m319.21,164.18c.52,1.2.43,2.36-.75,3.02-9.32,5.22-17.89,11.59-26.75,17.51-1.58,1.05-2.73.65-4.04-.21,3.94-4.48,9.53-6.45,14.54-9.21,4.3-2.37,7.16-6.17,10.67-9.3,1.87-1.67,4.17-2.52,6.06-4.06.55-.45,1.32-.49,1.57.35.29.99-.51,1.45-1.25,1.87,0,0-.05.05-.05.05Z"/>
      <path class="cls-1" d="m242.9,315.39c-1.01-1.51-.85-3.24.75-3.71,3.56-1.05,5.63-3.82,8.2-6.06,1.52-1.32,3.27-1.95,5.46-1.52,1.83.35,3.52-.57,4.95-1.73-1.4,1.13-4.1,2.1-.48,3.83-2.09,1.22-4.79.83-6.68,2.55v-.17c.66.6,1.33,1.2,1.99,1.8-2.05,0-2.95,1.28-4.01,2.89-2.2,3.33-5.17,5.2-9.27,2.83-.3-.24-.61-.47-.91-.71Z"/>
      <path class="cls-1" d="m196.88,310.32c.13-.1.27-.28.4-.28.29,0,.58.1.86.16-.22.41-.35.97-.69,1.22-8.19,5.82-16.35,11.67-24.65,17.33-1.62,1.1-3.98,1.68-2.45-1.95.4-1.04.78-2.05,1.17-3.07,4.05-2.45,9.16-2.55,12.85-5.77,3.8-3.32,8.14-5.73,12.72-7.75,0,0-.21.12-.21.12Z"/>
      <path class="cls-1" d="m182.63,296.14c-2.2,4.1-6.83,4.92-10.23,7.38-6.38,4.62-13.22,8.6-19.88,12.83-.87.55-1.83.7-2.84.41,0,0-.02-.05-.02-.05,7.09-5.06,14.14-10.17,21.29-15.14,1.96-1.37,2.29-1.99-.42-2.29,3.46-3.28,8.15-1.8,12.1-3.14Z"/>
      <path class="cls-1" d="m115.74,294.78c-3.33-1.07-4.36,2.85-7.1,3.26-1.65.25-3.07,2.13-4.95.56,0,0,.07.15.07.15.29-6.28,6.37-6.29,9.99-8.06,2.93-1.43,6-2.94,9.14-4.58,1.2,2.87-1.03,3.53-2.56,4.52-1.76,1.14-4.09,1.62-4.59,4.15Z"/>
      <path class="cls-1" d="m297.04,297.15c-1.56-1.41-3.37-1.3-5.24-.89.43-1.44-.13-3.2,1.77-4.14,4.13-2.06,6.91-6.06,11.22-7.9.81-.56,1.07-2.41,2.57-1.34.97.7,1.42,1.94.65,3.02-.83,1.17-1.96,2.12-2.96,3.16-4.75.64-5.59,5.15-8,8.1Z"/>
      <path class="cls-1" d="m54.11,145.97c-1.62-.46-4.29.21-4.66-1.46-.52-2.35,1.43-3.91,3.67-5.06,3.22-1.64,6.21-3.72,9.32-5.6.8-.48,1.59-1.44,2.6-.49.45.43,1.04,1.21.93,1.66-.59,2.26-1.82-.32-2.54.22-2.37,1.8-4.19,4.51-7.65,4.42,2.17,2.23.28,4.04-.61,5.96-.35.12-.7.24-1.04.36Z"/>
      <path class="cls-1" d="m260.43,317.39c1.02,1.52.69,4.02-1.26,4.9-4.39,2-8.45,4.51-12.61,6.89-1.14.65-1.84-.08-1.89-1.36,3.07-3.22,6.98-5.08,10.84-7.05,1.71-.87,3.2-2.18,4.79-3.3,0,0,.12-.09.12-.09Z"/>
      <path class="cls-1" d="m308.09,183.47c-3.59,2.46-7.17,4.93-10.77,7.37-1.58,1.07-2.92,2.68-5.13,2.49-.2-.58-.39-1.17-.59-1.75,2.54-2.75,7.98-1.78,8.56-7.42.25-2.42,6.58-2.73,7.92-.69Z"/>
      <path class="cls-1" d="m141.63,287.17c-3.82,2.62-7.64,5.25-11.47,7.86-1.2.81-2.43.78-3.62-.09-.21,0-.39-.08-.55-.21-.03-.32-.17-.88-.09-.91,5.4-2.14,9.12-7.96,15.81-7.24-.03.2-.06.4-.09.59Z"/>
      <path class="cls-1" d="m174.78,310.41c.57-1.72,2.17-1.81,3.55-2.29,4.39-1.53,8.98-2.59,12.85-5.49-3.81,6-11.97,5.94-15.79,11.79,0,0,.17-.08.17-.08-.26-.11-.52-.22-.78-.35,0,0-.17-.26-.17-.26,0-1.05-.01-2.11-.02-3.16l.18-.16Z"/>
      <path class="cls-1" d="m297.04,297.15c2.42-2.95,3.26-7.46,8-8.1.22.7.44,1.4.66,2.09-.06,5.2-2.29,6.78-8.61,6.11,0,0-.05-.1-.05-.1Z"/>
      <path class="cls-1" d="m185.1,332.12c-.11.51-.23,1.01-.35,1.52-.61.17-1.22.34-1.84.52-1.62.51-2.68,1.75-3.78,2.93-.53-.18-1.06-.36-1.59-.53-.29-.58-.57-1.16-.84-1.72-2.02-3.02-.25-4.11,2.46-4.48,1.76-.24,3.64.43,5.29-.69-.8,1.09-.03,1.76.66,2.46Z"/>
      <path class="cls-1" d="m317.92,225.42c1.8.25,3.59.49,4.77,2.13-.04.21-.05.42-.03.62-2.56,3.01-5.81,4.97-9.55,6.17,0,0,.11.1.11.1.53-2.86,1.92-5.13,4.38-6.76.8-.53,2.4-1.21.32-2.26Z"/>
      <path class="cls-1" d="m327.43,223.71c-2.43.51-3.83-.59-2.53-2.75,1.4-2.32,4.19-3.72,6.71-4.29,1.84-.42.83,1.21.12,2.01-1.44,1.68-2.87,3.35-4.29,5.02Z"/>
      <path class="cls-1" d="m126.99,303.97c-2.6-2.82.73-3.4,1.94-4.25,1.06-.75,2.83-.5,4.28-.69,1.05,1.19,2.43,1.65,3.96,1.76-3.21.17-5.18,3.94-8.77,3.01-.47.05-.93.11-1.4.17Z"/>
      <path class="cls-1" d="m87.84,272.76c-1.9.19-2.44-1.38-3.29-2.54,4.71-.11,8.11-3.2,12.53-4.68-2.19,1.82-4.37,3.63-6.57,5.46-.89.59-1.78,1.18-2.66,1.76Z"/>
      <path class="cls-1" d="m237.34,303.87c-.57-.73-.75-1.89.03-2.1,3.69-.94,7.02-3.59,11.16-2.54,0,0-.06-.25-.05-.25-2.63,1.56-4.87,4.15-8.42,3.3-.9.55-1.83,1.11-2.75,1.67l.03-.08Z"/>
      <path class="cls-1" d="m315.12,100.57c1.67,1.22,3.52-1.09,5.18.26,0,0-.05-.23-.05-.23-5.08,2.32-8.96,6.91-14.76,7.88,2.33-1.57,4.71-3.06,6.95-4.74,1.1-.82,3.31-.85,2.67-3.18Z"/>
      <path class="cls-1" d="m150.79,322.12c.22-3.11,2.97-2.33,4.73-3.07-.29.36-.57.71-.85,1.07-.07.11-.2.24-.18.34.03.24.12.48.19.71-.03.32-.03.64,0,.96-.09.1-.26.21-.24.28.04.21.16.41.25.62-.04.39-.09.77-.13,1.16l-.18-.02c-.9-.49-1.8-.97-2.71-1.46-.21-.2-.42-.39-.64-.59h-.23Z"/>
      <path class="cls-1" d="m321.17,177.03c-1.61.58-2.65,3.04-4.91,1.49l-.15.13c.39-.39.78-.78,1.17-1.17l-.15.15c.96-.73.88-1.46,0-2.2l.14.12c.59-1.24,1.69-1.77,2.93-2.11-1.15,1.62.16,2.58.97,3.67v-.08Z"/>
      <path class="cls-1" d="m260.43,317.39s-.12.08-.12.09c-.33-.24-.66-.48-.99-.72,0-.73,0-1.46,0-2.2l-.04.16c1.21-.64,2.55-1.11,3-2.62.7.04,1.4.08,2.1.12l-.11-.12c-.3.67-.6,1.35-.9,2.02,0,.36,0,.72,0,1.08.81.33,1.62.67,2.43,1-1.79.39-3.57.79-5.36,1.18Z"/>
      <path class="cls-1" d="m335.22,174.56c.76-1.3,1.85-2.04,3.4-2,0,0-.06-.08-.06-.08.35.16.44.41.29.77-.04.17-.13.31-.16.47,0,.06.12.14.18.21-.05-.27-.1-.53-.16-.8.83.32,1.66.64,2.48.96-.34.29-.69.58-1.03.86-.69.54-1.38,1.08-2.06,1.63-.69-.03-1.37-.07-2.06-.1,0,0,.13.13.13.13.05-.93.46-2.05-1.1-2.16l.14.11Z"/>
      <path class="cls-1" d="m165.62,321.74c-1.24.94-2.24.78-2.96-.66l-.15.14c.39-.39.78-.79,1.16-1.18l-.18.18c.69-.09,1.06-.51,1.18-1.18l-.16.17c.38-.05.75-.1,1.13-.14.66.54,1.31,1.09,1.97,1.63-.67.34-1.33.69-2,1.03Z"/>
      <path class="cls-1" d="m328.08,117.73c.49-1.4,1.77-1.78,2.97-2.21.67-.24.8.17.54.68-.13.26-.48.4-.73.6-.15.07-.36.17-.65.33-.71.2-1.42.4-2.13.61Z"/>
      <path class="cls-1" d="m130.46,317.59c.86-.58,1.71-1.16,2.57-1.73.24.47.47.93.7,1.4,0,0-.14-.17-.14-.17,0,.38,0,.75,0,1.13,0,0,.15-.17.15-.17-.39.39-.78.78-1.17,1.18,0,0,.19-.14.19-.14-.72-.17-1.43-.33-2.15-.5,0,0,.09.13.09.13-.08-.43-.15-.85-.22-1.28,0,0,.29.22.29.22,0,0-.31-.08-.31-.08Z"/>
      <path class="cls-1" d="m175.56,314.46c-.46.81-.91,1.65-1.94.61l-.14.17c.39-.39.77-.77,1.16-1.16l.14-.09c.26.12.52.24.78.35,0,0,0,.12,0,.12Z"/>
      <path class="cls-1" d="m110.89,283.25c-.45-.52-.91-1.04-1.36-1.56.75.38,1.49.75,2.23,1.13l-.12-.13c-.33.17-.65.34-.98.51,0,0,.23.05.23.05Z"/>
      <path class="cls-1" d="m176.88,339.48c-.81.22-1.63.44-2.44.66.72-.61,1.53-.81,2.44-.51,0,0,0-.15,0-.15Z"/>
      <path class="cls-1" d="m330.5,180.57c-.52-.87.32-.86.73-1.13-.22.38-.44.76-.66,1.13h-.07Z"/>
      <path class="cls-1" d="m102.08,306.23c-.29-.72.38-.83.73-1.14-.21.38-.42.76-.63,1.14h-.1Z"/>
      <path class="cls-1" d="m268.35,194.43l.13-.22s.1.33.09.33c0,0-.22-.11-.22-.11Z"/>
      <path class="cls-1" d="m328.66,193.62c-.39.25-.78.51-1.18.76,0,0,.17.12.17.12.39-.27.78-.55,1.17-.83,0,0-.16-.06-.16-.06Z"/>
      <path class="cls-1" d="m258.28,219.84c.68.36,1.35.72,2.02,1.08-.53.21-1.06.41-1.59.62-.14-.56-.29-1.13-.43-1.69Z"/>
      <path class="cls-1" d="m260.62,220.52c.36-1.06.8-.79,1.28-.09-.43.03-.85.06-1.28.09Z"/>
      <path class="cls-1" d="m323.43,171.81c-.46.27-.92.54-1.38.81.46-.22.92-.44,1.39-.66,0,0-.01-.15-.01-.15Z"/>
      <path class="cls-1" d="m258.35,221.97c-.11,0-.22.01-.33.02.14-.08.27-.16.41-.24,0,0-.08.22-.08.22Z"/>
      <path class="cls-1" d="m270.29,193.14s-.14.16-.14.16c0,0,.14-.16.14-.16Z"/>
      <path class="cls-1" d="m271.83,192.3s.06.09.06.1c0,0-.06-.1-.06-.1Z"/>
      <path class="cls-1" d="m324.24,183.4c-.18.37-.36.73-.55,1.1,0,0-.2-.19-.2-.18.25-.3.5-.61.75-.92Z"/>
      <path class="cls-1" d="m346.85,182.5c-.27.53-.53,1.06-.8,1.59.31-.48.62-.96.93-1.45,0,0-.13-.14-.13-.14Z"/>
      <polygon class="cls-1" points="329.37 180.85 329.22 181.08 329.41 181.01 329.37 180.85"/>
      <path class="cls-1" d="m171.17,318.36c-.23-.44-.45-.88-.68-1.31.19.44.37.88.56,1.32,0,0,.11,0,.11,0Z"/>
      <path class="cls-1" d="m336.88,178.81c-.27-.46-.55-.92-.82-1.39.22.46.44.93.67,1.4,0,0,.16-.01.16-.01Z"/>
      <path class="cls-1" d="m323.25,178.44c-.07-.38-.14-.76-.2-1.15,0,0-.12.12-.11.11,0,0,.18.04.18.04,0,.39,0,.78-.01,1.17l.15-.17Z"/>
      <path class="cls-1" d="m155.71,324.06c-.44.02-.88.04-1.32.06,0,0-.02.06-.02.06,0,0,.18.02.18.02.39-.04.77-.09,1.16-.13Z"/>
      <path class="cls-1" d="m322.95,177.25c.48.29.95.59,1.42.88-.42-.23-.84-.46-1.26-.69,0,0-.18-.04-.18-.04,0,0,.02-.16.02-.16Z"/>
      <polygon class="cls-1" points="172.39 338.65 172.71 338.56 172.39 338.49 172.39 338.65"/>
      <path class="cls-1" d="m327.16,132.27c1.94,2.3,3.78.92,5.57-.2,1.51-.94,2.96-1.99,4.43-2.99.53,2.5-1.13,3.51-2.98,4.35-8.21,3.72-15.31,9.24-22.88,14-1.72,1.08-3.54,2.32-4.61-.77,0,0-.16.04-.16.04,1.77-.09,3.48-.01,4.76-1.8,2.45-3.42,6.63-4.7,9.67-7.42,0,0-.15.12-.15.12.28-2.07,2.6-2.69,3.23-4.52,1.39,1.06,2.23.02,3.12-.82Z"/>
      <path class="cls-1" d="m318.29,154.97c-5.24,3.12-10.48,6.25-16.06,9.58,1.48-3.07,10.16-8.95,15.28-10.63.26.35.52.7.78,1.05Z"/>
      <path class="cls-1" d="m308.8,136.31c-4.68,2.96-9.36,5.92-14.03,8.87,4.1-3.99,7.29-9.37,14.03-8.87Z"/>
      <path class="cls-1" d="m284.11,174.36c-4.43,3.2-6.71,9.33-13.4,9.44,5.37-1.92,8.11-7.41,13.4-9.44Z"/>
      <path class="cls-1" d="m275.77,155.83c-3.81,4.48-9.09,7.27-14.77,9.44,4.92-3.15,9.84-6.29,14.77-9.44Z"/>
      <path class="cls-1" d="m288.31,99.84c3.77-3.79,8.68-5.62,13.41-7.77-4.03,3.35-8.23,6.4-13.41,7.77Z"/>
      <path class="cls-1" d="m285.52,65.17c-3.33,4.34-8.25,6.26-13,8.45,4.33-2.82,8.67-5.64,13-8.45Z"/>
      <path class="cls-1" d="m253.4,179.13c2.67-2.79,6.03-4.47,9.58-5.84-2.61,2.89-5.79,4.84-9.58,5.84Z"/>
      <path class="cls-1" d="m250.01,153.94c2.79-1.95,5.03-3.52,7.63-5.34-1.39,3.67-2.86,4.71-7.63,5.34Z"/>
      <path class="cls-1" d="m273.86,126.33c.56.72.69.88.81,1.04-.25.18-.48.42-.75.51-.17.06-.42-.11-.64-.17.18-.43.36-.86.58-1.38Z"/>
      <path class="cls-1" d="m309.26,101.17c-.69.53-1.38,1.06-2.07,1.59.69-.53,1.38-1.06,2.07-1.59Z"/>
      <path class="cls-1" d="m327.19,131.69c-.71,0-1.43,0-2.14,0,.72-.37,1.44-.74,2.16-1.11,0,.37-.01.74-.02,1.11Z"/>
      <path class="cls-1" d="m292.85,128.05c0-.29,0-.58.04-.86,0-.05.25-.06.38-.08-.17.34-.33.68-.5,1.02l.09-.07Z"/>
      <path class="cls-1" d="m306.52,146.71s.16-.04.16-.04c-.64-1.08.35-.51.65-.64,0,0,.08-.13.08-.13-.3.27-.59.54-.89.82Z"/>
      <path class="cls-1" d="m294.84,152.3l1.16-.2c-.06.09-.13.26-.18.26-.29-.04-.58-.12-.86-.19l-.12.13Z"/>
      <path class="cls-1" d="m283.4,119.84l-.49.2c.14-.02.27-.05.41-.07,0,0,.08-.13.08-.13Z"/>
      <path class="cls-1" d="m290.74,156.09c.04-.3.07-.61.11-.91l-.2.81s.09.11.09.11Z"/>
      <path class="cls-1" d="m290.64,155.98c-.42.09-.84.17-1.26.26.01-.14.02-.27.04-.41.43.07.86.15,1.31.24.02.02-.08-.09-.08-.09Z"/>
      <path class="cls-1" d="m328.2,117.6c0,.38.01.76.02,1.14-.72-.01-1.44-.02-2.16-.03.71-.37,1.43-.74,2.14-1.11Z"/>
      <path class="cls-1" d="m283.31,119.97l.04-.37s.03.23.03.24-.08.13-.08.13Z"/>
      <path class="cls-1" d="m326.22,118.6c-.38.38-.76.77-1.14,1.15.38-.38.76-.77,1.14-1.15Z"/>
      <path class="cls-1" d="m294.96,152.17c-.01.1-.02.2-.03.3-.02-.06-.05-.12-.08-.17,0,0,.11-.13.11-.13Z"/>
      <path class="cls-1" d="m325.23,119.6c-.36.38-.73.75-1.09,1.13.36-.38.73-.75,1.09-1.13Z"/>
      <path class="cls-1" d="m307.33,146.02l-.02-.38s.09.24.1.25c0,0-.07.13-.07.13Z"/>
      <path class="cls-1" d="m328.72,129.61c-.55.37-1.1.73-1.64,1.1.55-.37,1.1-.73,1.64-1.1Z"/>
      <polygon class="cls-1" points="320.81 137.61 320.96 137.48 320.88 137.4 320.81 137.61"/>
      <path class="cls-1" d="m325.21,131.56c-.37.55-.74,1.1-1.1,1.65.37-.55.74-1.1,1.1-1.65Z"/>
      <path class="cls-1" d="m292.77,128.12l-.24-.16s.3.09.31.09c0,0-.08.07-.08.07Z"/>
      <path class="cls-1" d="m111.64,282.69s.12.13.12.13c0-.72,0-1.43,0-2.15l.09.14c.09-1.73,1.49-1.97,2.73-2.35,3.99-1.23,7.3-3.46,9.97-6.66,0,0-.13-.05-.13-.05-.32-3.02,1.99-4.24,4.08-4.34,8.86-.43,15.99-4.11,21.84-10.75.3,3.29.25,3.2-2.22,4.67-4.27,2.53-8.47,5.18-12.69,7.79-.98.6-2.09,1.1-2.01,2.56.13,2.42-2.22,3.69-3.42,3.41-4.81-1.14-6.68,2.99-9.88,4.7-2.63,1.41-4.83,4.37-8.48,2.91Z"/>
      <path class="cls-1" d="m129.11,317.23c-3.1-.19-4.89,3.13-7.98,2.96,2.12-3.34,5.78-4.72,8.85-6.8,5.73-3.88,11.63-7.48,17.38-11.34,4.86-3.27,10.48-5.65,16.06-7.52,3.13-1.04,4.82-4.57,9.51-4.42-3.81,2.59-6.71,4.57-10.03,6.33-11.07,5.87-21.73,12.52-32.54,18.89-.67.4-1.48.83-1.25,1.88Z"/>
      <path class="cls-1" d="m223.4,249.43c6.66-9.04,17.38-12.38,26.23-18.38-8.07,7.04-16.93,12.99-26.23,18.38Z"/>
      <path class="cls-1" d="m147,273.57c-5.43,3.75-11.03,7.18-16.94,10.13-1.6.8-3.21,1.61-4.09-.54-.81-1.97,1.34-1.93,2.33-2.33,6.24-2.47,12.53-4.8,18.81-7.18l-.11-.09Z"/>
      <path class="cls-1" d="m220.17,238.21c4.19-7.9,11.88-10.55,19.3-13.63-6.32,4.7-12.75,9.25-19.3,13.63Z"/>
      <path class="cls-1" d="m202.85,247.92c-1.18-2.66,1.26-3.86,2.29-5.62,1-1.7,4.54-1.06,4.03-4.09-.31-1.83,4.52-.96,1.79-3.75.42-.16.91-.56,1.25-.45,1.47.46,1.55,2.06,1.08,2.82-1.61,2.56-2.49,5.64-5.02,7.57-1.8,1.17-3.6,2.35-5.41,3.52Z"/>
      <path class="cls-1" d="m147.11,273.66c-1.31-5.03,3.27-5.84,5.9-7.72,2.54-1.82,6.29-.94,9.05-2.93-4.04,4.94-10.4,6.57-15.08,10.54.01.01.12.1.12.1Z"/>
      <path class="cls-1" d="m202.85,247.92c1.81-1.18,3.61-2.35,5.41-3.52,1.45.36,1.49,1.44.53,2.06-6.17,4.01-12.44,7.89-19.02,11.29,5.16-2.26,6.54-9.46,13.08-9.83Z"/>
      <path class="cls-1" d="m244.69,246.42c.41-.88.75-2.49,1.23-2.53,7.19-.65,10.37-7.96,18.28-10.18-5.51,7.07-12.71,9.65-18.85,13.61-.22-.3-.44-.6-.66-.9Z"/>
      <path class="cls-1" d="m170.67,299.16c-2.98,1.92-6.23,3.31-8.49,6.41-1.6,2.19-4.3,3.56-7.41,2.98-.27.14-.52.29-.76.44-1.74-2.28,1.97-2.44,1.61-4.17,5.33.29,8.24-4.94,13.09-5.73.63-.1,1.31.05,1.97.08Z"/>
      <path class="cls-1" d="m223.7,244.75c-.44,1.85-1.8,2.52-2.71,3.58-.77.89-4.53.94-1.24,3.69.7.58-2.01,2.09-3.34,2.65-2.02.85-2.77-1.09-3.45-2.41-.7-1.36-.21-2.81,1.39-3,3.56-.42,5.98-3.17,9.36-4.5Z"/>
      <path class="cls-1" d="m204.04,283.19c-6.44,5.64-13.17,10.77-21.62,13.08,6.88-4.9,13.97-9.46,21.62-13.08Z"/>
      <path class="cls-1" d="m244.69,246.42c.22.3.44.6.66.9-3.95,4.63-9.84,6.18-14.89,9.22,4.15-4.36,9.85-7,13.25-12.1,0,0,.11-.02.11-.02.29.66.58,1.33.87,1.99Z"/>
      <path class="cls-1" d="m141.63,287.17c.03-.2.06-.4.09-.59,2.22-5.1,6.97-6.39,11.76-7.63-3.78,2.99-6.68,7.2-11.85,8.23Z"/>
      <path class="cls-1" d="m232.97,264.25c-5.76,4.83-11.6,9.55-18.59,12.58,5.63-5.03,10.88-10.62,18.59-12.58Z"/>
      <path class="cls-1" d="m207.95,276.76c-3.79,4.36-7.98,7.09-13.55,8.34,2.87-2.92,9.93-7.3,13.55-8.34Z"/>
      <path class="cls-1" d="m116.13,258.25c-4.84,1.25-8.16,5.7-13.72,5.44,4.12-2.7,8.29-5.29,13.06-6.78.04-.01.23.46.66,1.33Z"/>
      <path class="cls-1" d="m113.46,269c4.75-3.06,9.5-6.11,14.26-9.17.25.45.5.9.75,1.35-4.97,2.69-8.51,8-15.1,7.71-.01-.01.1.11.1.11Z"/>
      <path class="cls-1" d="m160.26,239.75c3.09-3.22,6.25-6.2,10.85-6.95-3.61,2.38-6.48,5.83-10.85,6.95Z"/>
      <path class="cls-1" d="m122.37,236.33c-3.06,2.34-6.13,4.65-11.36,5.59,4.29-2.83,7.48-4.92,11.36-5.59Z"/>
      <path class="cls-1" d="m183.05,284.45c1-5.65,5.38-4.79,8.09-6.36-1.83,2.7-4.82,3.86-8.09,6.36Z"/>
      <path class="cls-1" d="m178.41,263.18c-3.15,2.59-5.8,6.01-9.65,7.43-.24-.4-.48-.8-.72-1.2,3.46-2.08,6.91-4.16,10.37-6.24Z"/>
      <path class="cls-1" d="m81.17,231.2c-3.66,2.2-7.32,4.41-11,6.58-.36.21-.87.18-2.58.48,4.95-3.33,8.89-5.87,13.58-7.07Z"/>
      <path class="cls-1" d="m183.44,249.95c-1.44,3.59-4.77,4.42-8.01,5.42,2.67-1.81,5.34-3.61,8.01-5.42Z"/>
      <path class="cls-1" d="m145.69,294.77c-2.09-.07-3.81,2.11-6.07,1,.87-3.1,2.59-4.02,6.09-3.26-.14.01-.28.02-.42.03.13.17.26.34.39.51,0,.57,0,1.15,0,1.72Z"/>
      <path class="cls-1" d="m197.17,238.28c.37-.5.74-1.01,1.12-1.51,0,0,.27.06.27.06l-.26.11c.76-1.14,1.23-3.08,3.05-.93,1.46,1.72-.53,1.87-1.17,2.38-.7.55-1.77.64-2.68.93l.08.13c-.14-.39-.27-.78-.41-1.17Z"/>
      <path class="cls-1" d="m197.49,239.31c-.59.89-1.28,2.36-2.38,1.51-1-.77-.01-1.91.89-2.61.06,1.01,1.11.75,1.58,1.23l-.08-.13Z"/>
      <path class="cls-1" d="m149.06,311.22s-.06.02-.06.02c-.64-2.04.68-2.74,2.24-3.27-.2.4-.4.8-.6,1.2-.53.68-1.06,1.37-1.58,2.05Z"/>
      <path class="cls-1" d="m151.56,287.28c-.56.58-1.27.67-1.6-.06-.4-.91.76-.78,1.11-1.23.21.45.41.9.62,1.34l-.13-.06Z"/>
      <path class="cls-1" d="m111.85,280.81l-.09-.14c-.74.38-1.49.77-2.23,1.15,0-.54.01-1.08.02-1.63.77.21,1.53.41,2.3.62Z"/>
      <path class="cls-1" d="m132.89,315.87c1.16.02,2.33.05,3.49.08-.27.44-.54.87-.81,1.31,0,0,.2-.15.2-.15-.73,0-1.45,0-2.18-.01,0,0,.14.17.14.17-.28-.46-.56-.93-.84-1.39Z"/>
      <path class="cls-1" d="m150.93,286c.1.48,1.44.35.63,1.27,0,0,.13.06.13.06-.25-.45-.51-.89-.76-1.34Z"/>
      <path class="cls-1" d="m124.43,271.75s.13.05.13.05c0,0-.13-.05-.13-.05Z"/>
      <path class="cls-1" d="m221.39,288.67c3.12,1.73,5.26-1.79,8.12-1.51-1.29,2.56-4.05,3.25-6.18,4.68-3.48,2.34-7.68,3.72-9.42,8.15-.35.9-1.36,1.9-2.74,1.75,1.67-2.11-3.47-2.33-1.27-4.59,4.85-1.44,9.14-3.66,11.49-8.49Z"/>
      <path class="cls-1" d="m286.83,248.29c-6.03,4.96-12.72,8.91-19.59,12.57,6.06-4.92,11.29-11.13,19.59-12.57Z"/>
      <path class="cls-1" d="m250.42,268.71c-2.76,3.33-5,7.67-10.61,5.54,3.16-2.58,6.24-5.3,10.61-5.54Z"/>
      <path class="cls-1" d="m174.78,310.41s-.18.16-.18.16c-1.03.51-2.07,1.02-3.1,1.53l.15.12c.77-1.07.93-3.22,3.13-1.81Z"/>
      <path class="cls-1" d="m167.65,314.22c1.09-1.15,2.44-1.77,4-1.99,0,0-.15-.12-.15-.12,0,.37,0,.74,0,1.12,0,0,.14-.15.14-.15-1.28.75-2.62,1.23-4.13,1.02l.15.12Z"/>
      <path class="cls-1" d="m160.69,318.18c.79-1.69,2.28-1.92,3.9-1.89,0,0-.07-.17-.07-.17,0,.37,0,.73,0,1.1l.14-.15c-.87.11-1.79.1-2.17,1.14l.21-.12c-.72,0-1.45,0-2.17-.01l.16.1Z"/>
      <path class="cls-1" d="m217.45,288.09c-.22.25-.37.54-.61.64-.14.06-.41-.18-.62-.28.19-.2.35-.47.59-.57.15-.06.4.12.64.21Z"/>
      <path class="cls-1" d="m197.08,297.07c-.08.09-.17.17-.25.26.13-.1.26-.21.38-.31l-.14.05Z"/>
      <path class="cls-1" d="m155.28,319.08c1.1.05,2.2.1,3.3.14,0,0-.06-.15-.06-.15,0,.38,0,.76.01,1.15,0,0,.13-.14.13-.14-.71.04-1.42.09-2.14.13-.42-.38-.83-.75-1.25-1.13Z"/>
      <path class="cls-1" d="m158.58,319.22c.7-.35,1.4-.69,2.11-1.04,0,0-.16-.1-.16-.1,0,.38,0,.76,0,1.14l.17-.12c-.73,0-1.45-.02-2.18-.02l.06.15Z"/>
      <path class="cls-1" d="m165.7,315.16c.65-.31,1.3-.63,1.95-.94,0,0-.15-.12-.15-.12.06.36.12.73.17,1.09-.71-.03-1.42-.07-2.13-.1,0,0,.16.07.16.07Z"/>
      <path class="cls-1" d="m164.59,316.29c.37-.38.74-.75,1.11-1.13,0,0-.16-.07-.16-.07-.34.34-.68.69-1.03,1.03,0,0,.07.17.07.17Z"/>
      <path class="cls-1" d="m197.22,297.02l.24.12s-.36-.06-.36-.06.13-.05.13-.05Z"/>
      <path class="cls-1" d="m229.29,287.3c8.35-8.3,19.37-12.51,29.01-18.84,7.39-4.85,15.35-8.85,23.05-13.23-2.67,4.56-7.76,5.85-11.8,8.46-11.74,7.6-23.76,14.78-35.67,22.12-1.41.87-2.8,1.8-4.59,1.49Z"/>
      <path class="cls-1" d="m193.08,330.17c-1.05-.44-2.09-.87-3.14-1.3,0,0,.03.08.03.08-1.71.17-3.43.34-5.14.51,2.11-4.32,6.14-6.55,9.92-9.02,1.76-1.15,3.74-2.44,5.59.01.02.03.1.12.25.26-1.95,2.34-3.79,4.85-6.73,6.03-2.05.82-1.59,2.04-.77,3.42Z"/>
      <path class="cls-1" d="m200.59,320.71c-.14-.14-.23-.23-.25-.26-.3-2.89,3.73-3.44,3.42-6.33,0,0,.03-.05.03-.05,3,1,5.34.44,7.08-2.49.68-1.15,1.64-2.63,3.54-1.99,0,0,0,0,0,0-.43,2.19-.86,4.37-1.3,6.56-2.11.35-3.89,1.3-5.21,3.02-1.64.55-3.24,1.13-4.15,2.77l-.07.02c-1.03-.42-2.06-.84-3.09-1.26Z"/>
      <path class="cls-1" d="m289.34,263.34c-2.03-.08-4.06.13-5.55,1.59-1.34,1.31-3.35,2.94.06,4.32-3.64,1.75-6.89,4.35-11.05,4.94,0,0,.15.05.15.05,3.33-4.47,6.94-8.7,11.45-12.02,1.81-1.33,3.74-1.25,4.94,1.11Z"/>
      <path class="cls-1" d="m178.03,327.3c7.46-5.08,14.93-10.17,22.39-15.25-5.86,7.45-14.06,11.45-22.39,15.25Z"/>
      <path class="cls-1" d="m214.41,309.6s0,0,0,0c5.51-4.25,11.43-7.76,18.06-9.96-.2,1.22-.41,2.43-.62,3.64-1.8-1.64-2.69.16-4.07.86-4.29,2.2-7.98,5.95-13.37,5.47Z"/>
      <path class="cls-1" d="m262.34,285.8c-2.42-1.47-3.95.69-5.76,1.49-1.91.85-3.65,2.4-5.85.77,0,0,.2.3.2.3.08-.43.16-.87.23-1.3,0,0-.15.14-.15.14.61-.31,1.22-.62,1.82-.93,0,0-.01.12-.01.12,2-2.53,4.68-3.77,7.83-4.1,0,0,.09,0,.09,0,1.61.19,3.05-.29,4.42-1.09-.94,1.53-1.88,3.07-2.83,4.6Z"/>
      <path class="cls-1" d="m272.95,274.25s-.15-.05-.15-.05c.14.36.28.72.42,1.08l.15-.11c-.39.39-.79.79-1.18,1.18l.19-.18c-.66.12-1.09.47-1.16,1.17l.2-.15-5.15.99.13.11c1.37-2.67,4.29-2.83,6.55-4.05Z"/>
      <path class="cls-1" d="m250.92,288.36s-.2-.3-.2-.3c.32.57.64,1.14.95,1.72-.12,0-.24,0-.35,0,.11-.04.23-.09.34-.13-.94.59-1.88,1.19-2.83,1.78-.18-.43-.36-.86-.55-1.29l.13.16c0-.38,0-.75,0-1.13l-.08.17c0-.41,0-.82,0-1.22l.15.08c.85-.48,1.68-.58,2.44.17Z"/>
      <path class="cls-1" d="m261.43,281.29c1.14-1.85,2.85-2.76,4.97-2.98,0,0-.13-.11-.13-.11-1.16,1.84-2.88,2.74-5,2.99l.16.11Z"/>
      <path class="cls-1" d="m243.94,291.17c-.17.37-.35.74-.52,1.12-.72,0-1.44-.02-2.16-.03.89-.36,1.79-.73,2.68-1.09Z"/>
      <path class="cls-1" d="m260.74,282.29s-.09,0-.09,0c-.6-1,.41-.75.77-1,0,0-.16-.11-.16-.11-.18.37-.35.74-.53,1.11Z"/>
      <path class="cls-1" d="m234.95,297.14c0,.37,0,.74,0,1.11-.88.17-1.76.34-2.64.5.88-.54,1.76-1.07,2.63-1.61Z"/>
      <path class="cls-1" d="m245.15,291.26c.74-.65,1.48-1.31,2.22-1.96,0,0-.08-.15-.08-.15,0,.38,0,.76,0,1.14l.14-.14c-.76.37-1.53.74-2.29,1.11Z"/>
      <path class="cls-1" d="m252.82,286.38s0-.12.01-.12c0,0-.01.12-.01.12Z"/>
      <path class="cls-1" d="m247.37,289.3c.37-.37.74-.74,1.11-1.11,0,0-.15-.08-.15-.08,0,.41,0,.82,0,1.22,0,0,.08-.17.08-.17-.38,0-.75,0-1.13,0,0,0,.08.15.08.15Z"/>
      <path class="cls-1" d="m241.45,292.12c-.37.56-.75,1.12-1.12,1.67.37-.56.75-1.12,1.12-1.67Z"/>
      <path class="cls-1" d="m251.01,287.2s.15-.14.15-.14c0,0-.15.14-.15.14Z"/>
      <path class="cls-1" d="m228.97,314.13c-3.33,4.19-4.71,4.8-7.6,3.38.57-.46,1.27-1.01.93-1.82-.46-1.08-1.4-.93-2.29-.5-.98-2.46.96-3.09,2.52-3.74,2.1-.88,4.3-1.51,6.45-2.24h.22c.4,1.32-.38,2.09-1.16,2.99-.92,1.07-.34,1.74.93,1.92Z"/>
      <path class="cls-1" d="m229.2,309.22s-.22,0-.22,0c-.06-1.02-.13-2.03-.19-3.05,0,0,.03.01.03.01,1.55.4,2.58-.45,3.56-1.45.8.32,1.77-.57,2.49.36,0,0,0,.08,0,.08.78-.4,1.56-.81,2.33-1.21,0,0,.11,0,.11,0,.92-.56,1.85-1.11,2.75-1.67,1.01.78,1.01,1.95.1,2.44-3.48,1.88-6.37,5.28-10.95,4.51Z"/>
      <path class="cls-1" d="m215.36,327.19c2.29-4.69,8.06-4.89,11.09-8.62-2.36,4.59-6.29,7.17-11.09,8.62Z"/>
      <path class="cls-1" d="m290.84,277.35c-2.65,1.99-3.9,5.55-8.22,7.31,1.8-4.47,5.02-5.9,8.22-7.31Z"/>
      <path class="cls-1" d="m314.92,176.88c.52-.92,1.33-1.31,2.36-1.32,0,0-.14-.12-.14-.12,0,.73,0,1.46,0,2.2,0,0,.15-.15.15-.15-.39,0-.78-.01-1.18-.02l.17.15c-.45-.24-.9-.49-1.35-.73Z"/>
      <path class="cls-1" d="m322.26,172.48c-.45.95-1.31,1.07-2.21,1.12.5-.84,1.28-1.14,2.21-1.12Z"/>
      <path class="cls-1" d="m316.26,178.52c-.55.02-1.1.04-1.65.06.11-.62.22-1.23.33-1.84.44.29.89.58,1.33.87,0,0-.17-.15-.17-.15,0,.4,0,.79.01,1.19l.15-.13Z"/>
      <path class="cls-1" d="m328.66,193.62s.16.06.16.06c-1.35-4.6,2.51-5.36,5.16-5.87,2.95-.57,5.56-1.6,8.17-2.88.16,1.26.71,2.87-.88,3.39-5.26,1.72-2.79,4.56-1.22,7.33,0,0,.15.1.16.1-2.58-.36-4.53-3.09-7.65-1.77-.94.4-1.4-1.01-1.2-2.09-.63.18-1.28.35-1.92.52-.25.4-.51.81-.76,1.21Z"/>
      <path class="cls-1" d="m271.5,312.58c-1.26,2.01-3.53,2.48-5.39,3.58.3-.91-.04-1.54-.84-1.97,1.21-1.02,2.42-2.04,3.62-3.07.47-.17.95-.33,1.41-.49,1.06.32.98,1.3,1.2,2.11,0,0-.29-.08-.29-.08l.29-.08Z"/>
      <path class="cls-1" d="m328.24,178.45c-.31,1.74-2.29,1.86-3.06,3.15-.73-.54-1.46-1.09-2.19-1.63.58.25.92-.04,1.15-.53,1.36-.33,2.73-.66,4.09-.99Z"/>
      <path class="cls-1" d="m325.24,182.42c-.39.39-.78.79-1.18,1.18.39-.39.78-.79,1.18-1.18Z"/>
      <path class="cls-1" d="m325.12,181.41c.43.41.63.82-.02,1.22,0-.41.01-.81.02-1.22Z"/>
      <path class="cls-1" d="m324.22,179.57c-.37.18-.74.35-1.11.53.04-.55.09-1.1.13-1.65,0,0-.15.17-.15.17.43-.21.85-.43,1.28-.64-.05.53-.11,1.06-.16,1.6Z"/>
      <path class="cls-1" d="m329.43,192.41c.64-.17,1.28-.35,1.92-.52-.64.17-1.28.35-1.92.52Z"/>
      <path class="cls-1" d="m203.68,321.97s.07-.02.07-.02c0,0,.15.16.15.16,1.51,1.11,3.22,1.52,5.08,1.65,3.76.26,6.22-2.82,9.57-3.58l-.13-.06c-.58,3.48-3.88,3.62-6.18,4.92-1.84,1.04-3.84,1.79-5.77,2.67-1.95-3.14-5.07-.33-7.89-1.42,1.49-2.04,3.02-3.48,5.11-4.31Z"/>
      <path class="cls-1" d="m203.89,322.11s-.15-.16-.15-.16c.91-1.64,2.52-2.22,4.15-2.77,1.05.05,2.09.1,3.14.15,0,0-.15,0-.15,0,1.09-.82,2.52-1.42,2.08-3.23,2.49.76,4.7-.6,7.05-.9.9-.43,1.83-.59,2.29.5.35.81-.35,1.36-.93,1.82-.98.86-1.98,1.73-2.98,2.6,0,0,.13.06.13.06-1.35-1.28-2.9-1.58-4.43-.51-3.11,2.17-6.62,2.45-10.22,2.44Z"/>
      <path class="cls-1" d="m273.22,275.28c.76.26,2.33.03.79,1.56-2.54,2.51-5.51,4.06-9.05,4.53,2.15-1.39,4.3-2.78,6.45-4.17,0,0-.2.15-.2.15.67-.11,1.12-.44,1.16-1.17,0,0-.19.18-.19.18.39-.39.79-.79,1.18-1.18l-.15.11Z"/>
      <path class="cls-1" d="m334.17,178.55c-.33.34-.67.69-1,1.03-.71,0-1.41,0-2.12-.01.39-.63.77-1.26,1.15-1.9-.01,0,0-.16,0-.16l.14.27c-1.44.27-2.87.54-4.31.82,1.77-2.46,4.54-3.14,7.19-4.03,0,0-.14-.11-.14-.11-.58,1.2-.37,2.01,1.1,2.16,0,0-.13-.13-.13-.13.05.37.1.74.14,1.11-.83-.01-1.64.03-2.03.96Z"/>
      <path class="cls-1" d="m151.85,309.76c-.45-.22-.89-.43-1.34-.65.44.25.89.5,1.33.75,0,0,0-.1,0-.1Z"/>
      <path class="cls-1" d="m246.43,294.17c-.9,1.53-2.49,1.75-4.01,2.13.34-.38.68-.76,1.02-1.15l-.16.14,1.16-1.18s-.19.15-.19.15c.72-.03,1.45-.07,2.17-.1Z"/>
      <path class="cls-1" d="m235.81,298.24c1.22-.7,2.44-1.41,3.66-2.11-.71,1.59-2.09,2.02-3.66,2.11Z"/>
      <path class="cls-1" d="m247.4,292.78c-.7-.17-1.41-.34-2.11-.5,0-.37.01-.74.02-1.11.71,0,1.42,0,2.13-.01-.01.54-.02,1.08-.03,1.63Z"/>
      <path class="cls-1" d="m239.27,296.26c.7-.37,1.4-.75,2.1-1.12.43.38.86.76,1.29,1.14-1.13,0-2.26,0-3.38-.01Z"/>
      <polygon class="cls-1" points="237.31 303.94 237.2 303.95 237.04 303.76 237.34 303.87 237.31 303.94"/>
      <path class="cls-1" d="m247.29,291.29c.05-.38.1-.75.14-1.13,0,0-.14.14-.14.14.38,0,.75,0,1.13,0,0,0-.13-.16-.13-.16.22.43.44.86.67,1.29-.56-.04-1.11-.09-1.67-.13Z"/>
      <path class="cls-1" d="m234.86,305.16s0-.07,0-.08,0,.08,0,.08Z"/>
      <path class="cls-1" d="m246.29,294.32c.37-.56.75-1.12,1.12-1.68-.37.56-.75,1.12-1.12,1.68Z"/>
      <polygon class="cls-1" points="255.09 308.76 255.36 308.63 255.09 308.58 255.09 308.76"/>
      <path class="cls-1" d="m173.62,315.07c-1.05.33-2.1.66-3.15.99,0,0,.15.14.15.14.34-1.04.68-2.09,1.02-3.13,0,0-.14.15-.14.15,1.04.17,2.08.34,3.11.51,0,0,.17.26.17.26,0,0-.14.09-.14.09-.39.39-.77.77-1.16,1.16l.14-.17Z"/>
      <path class="cls-1" d="m184.94,332.12c1.5-1.33,2.53-3.4,5.01-3.18.01,0-.02-.07-.02-.08-1.13,1.43-2.26,2.86-3.39,4.29,0,0-.03-.22-.03-.22l-.08.21c-.5-.34-.99-.68-1.49-1.02Z"/>
      <path class="cls-1" d="m104.82,305.25c-.72-.01-1.45-.02-2.17-.03.72-.36,1.43-.73,2.15-1.09,0,.38.02.75.03,1.13Z"/>
      <path class="cls-1" d="m174.75,336.88l-.09.19s.13-.28.15-.29-.06.1-.06.1Z"/>
      <path class="cls-1" d="m174.64,340c-.39.39-.77.78-1.16,1.17.39-.39.77-.78,1.16-1.17Z"/>
      <path class="cls-1" d="m162.66,321.09c-1.38,0-2.75,0-4.13,0,0,0,.13.13.13.13,0-.38,0-.76,0-1.13,0,0-.13.14-.13.14.88-.08,1.67-.32,2.17-1.12,0,0-.17.12-.17.12.89-.05,1.76-.14,2.17-1.13,0,0-.21.12-.21.12.72,0,1.45,0,2.17,0l-.15-.17c0,.39,0,.78,0,1.17,0,0,.16-.17.16-.17-.39.39-.79.78-1.18,1.18,0,0,.18-.18.18-.18-.39.39-.78.79-1.16,1.18,0,0,.15-.14.15-.14Z"/>
      <path class="cls-1" d="m155.58,324.21c-.35-.35-.69-.69-1.04-1.04,0-.37,0-.73,0-1.1.87.09,1.7.08,1.99-.99.71.04,1.42.08,2.13.13,0,0-.13-.13-.13-.13-.29,1.04-.59,2.09-.88,3.13-.69,0-1.38,0-2.07,0Z"/>
      <path class="cls-1" d="m257.24,310.21c1.06-1.86,4.01-1.63,4.52-4.09,1.71-.33,3.41-.66,5.12-1-.18.37-.36.73-.53,1.1-.33.34-.67.68-1,1.02-1.93.07-2.5,1.49-2.98,3-1.71,0-3.42-.02-5.13-.03Z"/>
      <path class="cls-1" d="m262.39,311.1c0,.37,0,.75,0,1.12-.71,0-1.43,0-2.14-.01.72-.37,1.43-.74,2.15-1.11Z"/>
      <path class="cls-1" d="m262.29,310.06c0,.4,0,.8.01,1.2,0-.4,0-.8-.01-1.2Z"/>
      <path class="cls-1" d="m170.63,317.23c-.38-.05-.76-.1-1.14-.15l.13.15c.33-.34.66-.68,1-1.02,0,0-.15-.14-.15-.14.06.39.11.78.17,1.17Z"/>
      <path class="cls-1" d="m338.04,176.45c.39.39.78.78,1.17,1.17-.39-.39-.78-.78-1.17-1.17Z"/>
      <path class="cls-1" d="m165.52,319.21c.01-.7-.42-1.01-1.02-1.16,0,0,.15.17.15.17,0-.38,0-.76,0-1.15l-.14.15c.7-.05,1.4-.1,2.11-.15-.02.7.41,1.02,1.02,1.17l-.16-.14c.06.37.11.74.17,1.11-.71,0-1.42,0-2.12,0Z"/>
      <path class="cls-1" d="m169.49,317.07c.05.38.1.76.15,1.15-.72-.04-1.44-.08-2.16-.11,0,0,.16.14.16.14-.05-.39-.1-.77-.16-1.16.71.05,1.42.09,2.13.14l-.13-.15Z"/>
      <path class="cls-1" d="m156.67,320.07c0,.38,0,.76,0,1.14-.71,0-1.42,0-2.12,0,0-.38,0-.76,0-1.15.71,0,1.42,0,2.12,0Z"/>
      <path class="cls-1" d="m243.44,295.16c-.72.04-1.44.08-2.15.12.68-1.04,1.36-2.08,2.04-3.13.71,0,1.41,0,2.12,0-.4.71-.79,1.41-1.19,2.12,0,0,.19-.15.19-.15-.39.39-.77.78-1.16,1.18l.16-.14Z"/>
      <path class="cls-1" d="m263.25,315.24c0-.38,0-.76,0-1.14.72,0,1.44,0,2.16.01-.41.97-1.31,1.01-2.16,1.13Z"/>
      <polygon class="cls-1" points="211.03 319.33 210.99 319 210.88 319.32 211.03 319.33"/>
      <path class="cls-1" d="m167.53,316.27c0-.41,0-.81,0-1.22,0,.41,0,.81,0,1.22Z"/>
      <path class="cls-1" d="m167.63,317.22c-.38,0-.76,0-1.14,0,.38-.38.75-.76,1.13-1.14,0,.38,0,.77,0,1.15Z"/>
    </g>
  </g>
</svg>